Normalized EMG Linear Envelopes
nRows=116
nColumns=4

endheader
time	 med_gas_r	  soleus_r	 tib_ant_r	
3.72154	  0.024632	  0.030447	  0.017109	
3.7931	  0.024476	  0.030476	  0.016699	
3.86467	  0.024659	  0.030142	  0.016368	
3.93624	  0.024345	  0.030175	  0.016324	
4.00781	  0.023458	  0.030588	  0.016547	
4.07938	  0.023009	  0.030477	  0.016924	
4.15094	  0.023251	  0.029917	  0.017441	
4.22251	  0.023660	  0.029142	  0.017960	
4.29408	  0.023619	  0.028496	  0.017908	
4.36565	  0.023916	  0.028137	  0.017238	
4.43722	  0.025793	  0.028213	  0.016618	
4.50878	  0.028891	  0.028824	  0.016393	
4.58035	  0.033302	  0.029188	  0.016222	
4.65192	  0.042317	  0.029859	  0.015877	
4.72349	  0.055355	  0.032528	  0.015561	
4.79506	  0.073038	  0.038296	  0.015556	
4.86662	  0.099472	  0.046156	  0.016051	
4.93819	  0.126810	  0.052819	  0.016883	
5.00976	  0.150507	  0.056610	  0.017941	
5.08133	  0.172272	  0.059594	  0.018792	
5.1529	  0.180680	  0.059105	  0.019299	
5.22446	  0.164491	  0.054539	  0.019283	
5.29603	  0.138857	  0.050145	  0.018904	
5.3676	  0.117607	  0.045766	  0.017981	
5.43917	  0.099853	  0.040706	  0.017272	
5.51074	  0.093910	  0.038210	  0.016921	
5.5823	  0.096223	  0.038655	  0.016875	
5.65387	  0.096706	  0.040534	  0.017406	
5.72544	  0.101962	  0.044271	  0.018554	
5.79701	  0.116781	  0.048294	  0.019606	
5.86858	  0.125360	  0.049098	  0.019894	
5.94014	  0.121012	  0.046794	  0.019045	
6.01171	  0.125519	  0.045854	  0.017937	
6.08328	  0.134671	  0.046112	  0.017251	
6.15485	  0.132932	  0.046113	  0.016940	
6.22642	  0.123373	  0.046233	  0.017219	
6.29798	  0.118017	  0.046200	  0.018201	
6.36955	  0.121972	  0.047464	  0.019389	
6.44112	  0.128812	  0.051074	  0.020389	
6.51269	  0.136098	  0.055055	  0.020856	
6.58426	  0.142865	  0.057831	  0.020889	
6.65582	  0.152168	  0.059038	  0.021080	
6.72739	  0.161160	  0.060282	  0.021685	
6.79896	  0.161672	  0.058660	  0.022208	
6.87053	  0.156197	  0.055050	  0.022053	
6.9421	  0.151837	  0.053372	  0.021181	
7.01366	  0.144534	  0.053167	  0.019992	
7.08523	  0.144169	  0.054141	  0.019215	
7.1568	  0.150254	  0.055255	  0.019278	
7.22837	  0.158664	  0.056075	  0.019806	
7.29994	  0.162199	  0.056723	  0.020326	
7.3715	  0.163662	  0.057321	  0.020473	
7.44307	  0.166986	  0.057348	  0.020123	
7.51464	  0.169969	  0.057403	  0.019864	
7.58621	  0.169443	  0.056826	  0.019812	
7.65778	  0.169163	  0.056338	  0.019755	
7.72934	  0.156905	  0.055629	  0.019636	
7.80091	  0.140323	  0.054936	  0.019518	
7.87248	  0.134072	  0.055702	  0.019405	
7.94405	  0.131136	  0.055592	  0.019401	
8.01562	  0.134282	  0.054922	  0.019537	
8.08718	  0.141638	  0.054239	  0.019683	
8.15875	  0.141404	  0.052573	  0.019603	
8.23032	  0.141881	  0.050965	  0.019441	
8.30189	  0.143205	  0.050395	  0.019157	
8.37346	  0.141284	  0.050194	  0.018835	
8.44502	  0.139779	  0.049263	  0.018331	
8.51659	  0.141729	  0.048405	  0.017703	
8.58816	  0.135730	  0.047550	  0.017076	
8.65973	  0.127665	  0.046615	  0.016758	
8.7313	  0.128151	  0.046764	  0.017047	
8.80286	  0.133781	  0.048910	  0.017677	
8.87443	  0.139775	  0.052215	  0.018209	
8.946	  0.151927	  0.055124	  0.018746	
9.01757	  0.160801	  0.056254	  0.019534	
9.08914	  0.159752	  0.056389	  0.019857	
9.1607	  0.157500	  0.057813	  0.019455	
9.23227	  0.158396	  0.059475	  0.018972	
9.30384	  0.164810	  0.060257	  0.018860	
9.37541	  0.172562	  0.062114	  0.019375	
9.44698	  0.180063	  0.064276	  0.020259	
9.51854	  0.186757	  0.065941	  0.021416	
9.59011	  0.190545	  0.066641	  0.022059	
9.66168	  0.182101	  0.065275	  0.021930	
9.73325	  0.171399	  0.060823	  0.021284	
9.80482	  0.163278	  0.057509	  0.021127	
9.87638	  0.163658	  0.058111	  0.021546	
9.94795	  0.169307	  0.062221	  0.021533	
10.0195	  0.178784	  0.067423	  0.020350	
10.0911	  0.185851	  0.069462	  0.018907	
10.1627	  0.190792	  0.070292	  0.018120	
10.2342	  0.192169	  0.069930	  0.018193	
10.3058	  0.193464	  0.070009	  0.019112	
10.3774	  0.200175	  0.068922	  0.019910	
10.4489	  0.212084	  0.067375	  0.020014	
10.5205	  0.223941	  0.066511	  0.019903	
10.5921	  0.220658	  0.064888	  0.019539	
10.6636	  0.196639	  0.060325	  0.018392	
10.7352	  0.161271	  0.055556	  0.015478	
10.8068	  0.136497	  0.049936	  0.011097	
10.8783	  0.122197	  0.044573	  0.007955	
10.9499	  0.106019	  0.042145	  0.012076	
11.0215	  0.079187	  0.041107	  0.034141	
11.093	  0.061379	  0.042405	  0.086715	
11.1646	  0.055731	  0.046253	  0.169345	
11.2362	  0.049714	  0.049336	  0.243756	
11.3077	  0.044448	  0.049718	  0.265689	
11.3793	  0.040531	  0.047488	  0.259556	
11.4509	  0.036011	  0.044202	  0.247884	
11.5224	  0.032044	  0.041364	  0.229599	
11.594	  0.028986	  0.038754	  0.205449	
11.6656	  0.027319	  0.036622	  0.182817	
11.7372	  0.026734	  0.035710	  0.166253	
11.8087	  0.026239	  0.036067	  0.161041	
11.8803	  0.026461	  0.037401	  0.159170	
11.9519	  0.027770	  0.038804	  0.157294	
